<svg width="30" height="7" viewBox="0 0 30 7" fill="none" xmlns="http://www.w3.org/2000/svg">
<path fill-rule="evenodd" clip-rule="evenodd" d="M0.121311 0.487577C0.258387 0.280662 0.498088 0.123402 0.787859 0.0502782C1.07763 -0.0228457 1.39382 -0.00586627 1.6671 0.0974945L14.9955 5.14757L28.3216 0.0957454C28.4572 0.0432346 28.6052 0.0115899 28.7569 0.0026357C28.9087 -0.00631852 29.0613 0.00759479 29.206 0.0435737C29.3507 0.0795525 29.4845 0.136885 29.5998 0.212266C29.7151 0.287647 29.8095 0.379586 29.8778 0.482781C29.946 0.585976 29.9865 0.698386 29.9972 0.813532C30.0078 0.928677 29.9883 1.04428 29.9397 1.15367C29.8911 1.26307 29.8145 1.36409 29.7142 1.45092C29.6139 1.53775 29.4919 1.60866 29.3552 1.65957L15.5123 6.90732C15.3519 6.96827 15.175 7 14.9955 7C14.8161 7 14.6391 6.96827 14.4787 6.90732L0.635807 1.65957C0.362898 1.55565 0.155482 1.37391 0.0590355 1.15421C-0.0374105 0.934508 -0.0150151 0.694776 0.121311 0.487577Z" fill="white"/>
</svg>
